# xmcd
#
# Track frame offsets:
#	150
#	17326
#	35449
#	51780
#	69463
#	87610
#	100936
#	117713
#	133721
#	153738
#
# Disc length: 2222 seconds
#
# Revision: 0
# Processed by: cddbd v1.5.2PL0 Copyright (c) Steve Scherf et al.
# Submitted via: EasyCDDAExtractor 10.2.0.1
#
DISCID=8808ac0a
DTITLE=Various Artist - HMG Christain Country Vol 103
DYEAR=1900
DGENRE=Gospel
TTITLE0=Nick Ashton - You're My Angel
TTITLE1=Angela Hill - Daddy's Gone To Heaven
TTITLE2=Michael King - Jesus Song
TTITLE3=Kenneth Neal - Walking With Angels
TTITLE4=Michele M. Wright - Shine On
TTITLE5=Clint Miller - Behold I Am Lord
TTITLE6=Lem Pratt - Just Take It One Day At A Time
TTITLE7=Carolyn Wiggins - I Drove The Nails
TTITLE8=Sandra Dee - You'll Get Through This
TTITLE9=James Rogers - My Best Advice
EXTD=
EXTT0=
EXTT1=
EXTT2=
EXTT3=
EXTT4=
EXTT5=
EXTT6=
EXTT7=
EXTT8=
EXTT9=
PLAYORDER=
